<?xml version="1.0" encoding="UTF-8" standalone="no"?>
<!-- Created with Inkscape (http://www.inkscape.org/) -->

<svg
   version="1.1"
   id="svg1"
   width="2800"
   height="1300"
   viewBox="400 240 2550 700"
   sodipodi:docname="schier_banner_900x500.eps"
   xmlns:inkscape="http://www.inkscape.org/namespaces/inkscape"
   xmlns:sodipodi="http://sodipodi.sourceforge.net/DTD/sodipodi-0.dtd"
   xmlns="http://www.w3.org/2000/svg"
   xmlns:svg="http://www.w3.org/2000/svg">
  <defs
     id="defs1" />
  <sodipodi:namedview
     id="namedview1"
     pagecolor="#ffffff"
     bordercolor="#000000"
     borderopacity="0.25"
     inkscape:showpageshadow="2"
     inkscape:pageopacity="0.0"
     inkscape:pagecheckerboard="0"
     inkscape:deskcolor="#d1d1d1">
    <inkscape:page
       x="0"
       y="0"
       inkscape:label="1"
       id="page1"
       width="3401.5732"
       height="1713.1866"
       margin="0"
       bleed="0" />
  </sodipodi:namedview>
  <g
     id="g1"
     inkscape:groupmode="layer"
     inkscape:label="1">
    <g
       id="group-R5">
      <path
         id="path2"
         d="M 25511.8,0 H 0 V 3544.7 H 25511.8 V 0"
         style="fill:#07a95c;fill-opacity:1;fill-rule:nonzero;stroke:none"
         transform="matrix(0.13333333,0,0,-0.13333333,0,1713.1867)" />
      <path
         id="path3"
         d="m 3692.35,4567.11 c 44.96,0 85.9,9.63 122.83,28.9 36.93,19.27 68.49,44.68 94.73,76.27 26.22,31.55 46.29,67.43 60.21,107.57 13.9,40.14 20.88,81.61 20.88,124.43 0,44.96 -8.04,87.76 -24.09,128.45 -16.06,40.67 -38.01,76.52 -65.83,107.58 -27.85,31.03 -60.76,55.64 -98.74,73.85 -38.01,18.2 -78.95,27.3 -122.83,27.3 -27.85,0 -57,-5.62 -87.51,-16.86 -30.5,-11.24 -58.87,-26.24 -85.09,-44.96 -26.25,-18.74 -48.72,-40.69 -67.44,-65.83 -18.74,-25.15 -30.25,-51.65 -34.52,-79.47 v -256.9 c 12.85,-29.98 29.15,-57.8 48.97,-83.49 19.8,-25.68 42.28,-47.91 67.44,-66.63 25.13,-18.74 52.18,-33.47 81.08,-44.15 28.9,-10.72 58.85,-16.06 89.91,-16.06 z m 30.51,-96.34 c -70.65,0 -133.02,17.92 -187.05,53.79 -54.07,35.85 -97.69,81.09 -130.86,135.68 v -515.4 h -109.18 v 1178.5 h 97.94 v -162.16 c 34.25,52.44 78.68,94.98 133.27,127.64 54.59,32.64 114,48.98 178.22,48.98 57.8,0 110.79,-12.04 158.95,-36.13 48.17,-24.09 89.92,-56.2 125.24,-96.33 35.32,-40.15 62.87,-86.46 82.69,-138.89 19.79,-52.46 29.7,-106.52 29.7,-162.17 0,-58.88 -9.11,-114.54 -27.3,-166.98 -18.21,-52.45 -44.15,-98.49 -77.87,-138.08 -33.71,-39.61 -73.86,-70.93 -120.42,-93.92 -46.56,-23.01 -97.68,-34.53 -153.33,-34.53"
         style="fill:#2b3994;fill-opacity:1;fill-rule:nonzero;stroke:none"
         transform="matrix(0.13333333,0,0,-0.13333333,0,1713.1867)" />
      <path
         id="path4"
         d="m 4703.86,5227.01 c -73.86,-2.16 -138.08,-22.48 -192.67,-61.01 -54.59,-38.54 -93.12,-91.52 -115.6,-158.96 v -520.21 h -109.18 v 836.51 h 102.76 v -200.69 c 31.03,64.22 72.77,114.52 125.23,150.92 52.43,36.37 108.63,54.59 168.59,54.59 8.55,0 15.5,-0.55 20.87,-1.6 v -99.55"
         style="fill:#2b3994;fill-opacity:1;fill-rule:nonzero;stroke:none"
         transform="matrix(0.13333333,0,0,-0.13333333,0,1713.1867)" />
      <path
         id="path5"
         d="m 4861.23,4901.08 c 0,-47.12 8.02,-90.72 24.08,-130.86 16.06,-40.14 37.73,-75.47 65.03,-105.97 27.29,-30.51 59.41,-54.34 96.33,-71.45 36.93,-17.13 76.27,-25.69 118.01,-25.69 41.75,0 81.09,8.83 118.02,26.49 36.92,17.66 69.29,41.75 97.13,72.25 27.83,30.51 49.78,66.09 65.83,106.78 16.06,40.66 24.09,84.54 24.09,131.65 0,46.02 -8.03,89.64 -24.09,130.86 -16.05,41.19 -38,77.07 -65.83,107.58 -27.84,30.51 -60.21,54.59 -97.13,72.24 -36.93,17.67 -76.27,26.5 -118.02,26.5 -41.74,0 -80.83,-8.83 -117.2,-26.5 -36.41,-17.65 -68.52,-42.02 -96.34,-73.05 -27.85,-31.06 -49.77,-67.18 -65.83,-108.37 -16.06,-41.22 -24.08,-85.38 -24.08,-132.46 z m 303.45,-430.31 c -61.01,0 -116.68,11.52 -166.98,34.53 -50.32,22.99 -93.93,54.31 -130.85,93.92 -36.93,39.59 -65.58,85.63 -85.9,138.08 -20.35,52.44 -30.51,107.58 -30.51,165.38 0,58.86 10.44,114.52 31.31,166.98 20.87,52.43 49.77,98.47 86.7,138.08 36.93,39.59 80.53,71.18 130.86,94.73 50.3,23.53 105.42,35.33 165.37,35.33 59.94,0 115.33,-11.8 166.18,-35.33 50.83,-23.55 94.74,-55.14 131.66,-94.73 36.93,-39.61 65.83,-85.65 86.7,-138.08 20.88,-52.46 31.31,-108.12 31.31,-166.98 0,-57.8 -10.18,-112.94 -30.5,-165.38 -20.35,-52.45 -48.98,-98.49 -85.9,-138.08 -36.93,-39.61 -80.83,-70.93 -131.66,-93.92 -50.85,-23.01 -106.77,-34.53 -167.79,-34.53"
         style="fill:#2b3994;fill-opacity:1;fill-rule:nonzero;stroke:none"
         transform="matrix(0.13333333,0,0,-0.13333333,0,1713.1867)" />
      <path
         id="path6"
         d="m 5790.85,4486.83 v 749.81 h -115.6 v 86.7 h 115.6 v 22.48 c 0,102.76 21.93,183.29 65.83,241.64 43.88,58.33 103.81,87.51 179.83,87.51 33.16,0 65.28,-4.82 96.34,-14.45 31.03,-9.64 57.79,-22.48 80.28,-38.53 l -33.73,-78.68 c -15,11.77 -33.46,20.87 -55.39,27.3 -21.95,6.41 -44.15,9.63 -66.63,9.63 -51.38,0 -90.47,-19.82 -117.21,-59.41 -26.77,-39.61 -40.14,-96.88 -40.14,-171.79 v -25.7 h 231.21 v -86.7 h -231.21 v -749.81 h -109.18"
         style="fill:#2b3994;fill-opacity:1;fill-rule:nonzero;stroke:none"
         transform="matrix(0.13333333,0,0,-0.13333333,0,1713.1867)" />
      <path
         id="path7"
         d="m 6908.35,4949.24 c -3.21,44.95 -13.65,85.9 -31.31,122.83 -17.66,36.93 -40.14,68.76 -67.43,95.53 -27.3,26.75 -58.88,47.62 -94.73,62.62 -35.88,14.98 -74.14,22.48 -114.8,22.48 -40.7,0 -79.23,-7.5 -115.61,-22.48 -36.4,-15 -68.23,-35.87 -95.53,-62.62 -27.29,-26.77 -49.25,-58.88 -65.83,-96.34 -16.61,-37.48 -26.49,-78.14 -29.7,-122.02 z m -308.27,-478.47 c -61.02,0 -116.96,11.52 -167.79,34.53 -50.85,22.99 -95,54.59 -132.46,94.72 -37.48,40.14 -66.63,86.43 -87.51,138.89 -20.86,52.43 -31.3,108.62 -31.3,168.58 0,58.86 10.44,114.25 31.3,166.19 20.88,51.9 49.78,97.39 86.71,136.47 36.93,39.06 81.08,70.1 132.46,93.12 51.38,23.01 107.02,34.53 166.98,34.53 61.01,0 116.94,-11.52 167.78,-34.53 50.83,-23.02 94.46,-54.33 130.86,-93.92 36.38,-39.62 64.75,-85.1 85.1,-136.48 20.32,-51.37 30.5,-105.97 30.5,-163.76 0,-8.59 0,-17.14 0,-25.7 0,-8.58 -0.55,-14.45 -1.6,-17.66 h -716.1 c 3.21,-44.96 13.65,-86.45 31.31,-124.44 17.66,-38.01 40.39,-70.92 68.24,-98.74 27.82,-27.84 59.66,-49.52 95.53,-65.03 35.85,-15.52 74.11,-23.28 114.8,-23.28 26.75,0 53.51,3.74 80.29,11.24 26.74,7.48 51.37,17.67 73.85,30.51 22.48,12.84 42.8,28.62 61.01,47.36 18.19,18.72 32.11,39.34 41.75,61.82 l 94.73,-25.68 c -12.84,-31.07 -31.06,-59.16 -54.59,-84.3 -23.56,-25.17 -50.86,-47.12 -81.89,-65.83 -31.06,-18.74 -65.3,-33.19 -102.75,-43.35 -37.49,-10.17 -76.55,-15.26 -117.21,-15.26"
         style="fill:#2b3994;fill-opacity:1;fill-rule:nonzero;stroke:none"
         transform="matrix(0.13333333,0,0,-0.13333333,0,1713.1867)" />
      <path
         id="path8"
         d="m 7459.05,4470.77 c -65.3,0 -129,10.72 -191.06,32.11 -62.1,21.4 -115.61,52.44 -160.56,93.13 l 49.77,73.86 c 47.09,-38.54 94.98,-67.43 143.7,-86.7 48.69,-19.27 100.88,-28.91 156.55,-28.91 67.43,0 121.22,13.65 161.36,40.95 40.14,27.29 60.21,66.07 60.21,116.4 0,23.53 -5.37,43.08 -16.06,58.61 -10.71,15.5 -26.49,29.15 -47.36,40.94 -20.87,11.76 -47.12,22.2 -78.68,31.3 -31.58,9.09 -68.23,18.47 -109.98,28.11 -48.17,11.77 -89.91,23.53 -125.24,35.32 -35.32,11.77 -64.5,25.14 -87.5,40.14 -23.03,14.98 -40.14,33.45 -51.38,55.39 -11.24,21.93 -16.86,49.5 -16.86,82.69 0,41.74 8.28,78.68 24.89,110.79 16.58,32.11 39.06,58.6 67.43,79.48 28.35,20.87 61.54,36.65 99.55,47.36 37.98,10.69 78.4,16.06 121.22,16.06 64.23,0 122.55,-10.44 175.01,-31.31 52.43,-20.88 94.73,-48.45 126.84,-82.69 l -52.98,-64.23 c -31.06,32.11 -68.79,56.2 -113.19,72.26 -44.44,16.05 -90.72,24.08 -138.89,24.08 -28.9,0 -55.67,-2.96 -80.28,-8.83 -24.64,-5.89 -46.31,-15.25 -65.03,-28.1 -18.74,-12.84 -33.46,-29.17 -44.15,-48.97 -10.71,-19.82 -16.06,-43.1 -16.06,-69.84 0,-22.48 3.74,-40.69 11.24,-54.59 7.48,-13.93 19.8,-25.97 36.93,-36.13 17.11,-10.19 38.79,-19.27 65.03,-27.3 26.22,-8.03 58.05,-16.33 95.53,-24.88 53.51,-12.84 100.6,-25.69 141.3,-38.54 40.66,-12.84 74.65,-27.84 101.95,-44.95 27.29,-17.14 47.89,-38.01 61.82,-62.62 13.89,-24.63 20.87,-54.59 20.87,-89.92 0,-77.07 -29.45,-138.07 -88.31,-183.03 -58.88,-44.95 -138.08,-67.44 -237.63,-67.44"
         style="fill:#2b3994;fill-opacity:1;fill-rule:nonzero;stroke:none"
         transform="matrix(0.13333333,0,0,-0.13333333,0,1713.1867)" />
      <path
         id="path9"
         d="m 8240.98,4470.77 c -65.31,0 -129,10.72 -191.07,32.11 -62.09,21.4 -115.6,52.44 -160.56,93.13 l 49.78,73.86 c 47.08,-38.54 94.98,-67.43 143.69,-86.7 48.7,-19.27 100.88,-28.91 156.55,-28.91 67.44,0 121.22,13.65 161.36,40.95 40.14,27.29 60.21,66.07 60.21,116.4 0,23.53 -5.37,43.08 -16.05,58.61 -10.72,15.5 -26.5,29.15 -47.37,40.94 -20.87,11.76 -47.11,22.2 -78.67,31.3 -31.59,9.09 -68.24,18.47 -109.99,28.11 -48.16,11.77 -89.91,23.53 -125.23,35.32 -35.32,11.77 -64.5,25.14 -87.51,40.14 -23.03,14.98 -40.14,33.45 -51.38,55.39 -11.23,21.93 -16.85,49.5 -16.85,82.69 0,41.74 8.27,78.68 24.88,110.79 16.59,32.11 39.06,58.6 67.44,79.48 28.34,20.87 61.54,36.65 99.54,47.36 37.98,10.69 78.4,16.06 121.23,16.06 64.22,0 122.55,-10.44 175.01,-31.31 52.43,-20.88 94.73,-48.45 126.84,-82.69 l -52.99,-64.23 c -31.06,32.11 -68.79,56.2 -113.19,72.26 -44.43,16.05 -90.72,24.08 -138.89,24.08 -28.9,0 -55.67,-2.96 -80.27,-8.83 -24.64,-5.89 -46.32,-15.25 -65.03,-28.1 -18.74,-12.84 -33.47,-29.17 -44.15,-48.97 -10.72,-19.82 -16.06,-43.1 -16.06,-69.84 0,-22.48 3.74,-40.69 11.24,-54.59 7.47,-13.93 19.79,-25.97 36.93,-36.13 17.1,-10.19 38.78,-19.27 65.02,-27.3 26.22,-8.03 58.06,-16.33 95.54,-24.88 53.51,-12.84 100.6,-25.69 141.29,-38.54 40.66,-12.84 74.66,-27.84 101.95,-44.95 27.3,-17.14 47.89,-38.01 61.82,-62.62 13.9,-24.63 20.87,-54.59 20.87,-89.92 0,-77.07 -29.45,-138.07 -88.31,-183.03 -58.88,-44.95 -138.08,-67.44 -237.62,-67.44"
         style="fill:#2b3994;fill-opacity:1;fill-rule:nonzero;stroke:none"
         transform="matrix(0.13333333,0,0,-0.13333333,0,1713.1867)" />
      <path
         id="path10"
         d="m 8745.13,4486.83 v 836.51 h 109.18 v -836.51 z m 0,1011.52 v 160.56 h 109.18 v -160.56 h -109.18"
         style="fill:#2b3994;fill-opacity:1;fill-rule:nonzero;stroke:none"
         transform="matrix(0.13333333,0,0,-0.13333333,0,1713.1867)" />
      <path
         id="path11"
         d="m 9148.12,4901.08 c 0,-47.12 8.02,-90.72 24.08,-130.86 16.06,-40.14 37.73,-75.47 65.03,-105.97 27.29,-30.51 59.41,-54.34 96.33,-71.45 36.93,-17.13 76.27,-25.69 118.01,-25.69 41.75,0 81.09,8.83 118.01,26.49 36.93,17.66 69.3,41.75 97.14,72.25 27.83,30.51 49.78,66.09 65.83,106.78 16.06,40.66 24.09,84.54 24.09,131.65 0,46.02 -8.03,89.64 -24.09,130.86 -16.05,41.19 -38,77.07 -65.83,107.58 -27.84,30.51 -60.21,54.59 -97.14,72.24 -36.92,17.67 -76.26,26.5 -118.01,26.5 -41.74,0 -80.83,-8.83 -117.2,-26.5 -36.41,-17.65 -68.52,-42.02 -96.34,-73.05 -27.85,-31.06 -49.77,-67.18 -65.83,-108.37 -16.06,-41.22 -24.08,-85.38 -24.08,-132.46 z m 303.45,-430.31 c -61.01,0 -116.68,11.52 -166.98,34.53 -50.32,22.99 -93.93,54.31 -130.85,93.92 -36.93,39.59 -65.58,85.63 -85.9,138.08 -20.35,52.44 -30.51,107.58 -30.51,165.38 0,58.86 10.44,114.52 31.31,166.98 20.87,52.43 49.77,98.47 86.7,138.08 36.93,39.59 80.53,71.18 130.86,94.73 50.3,23.53 105.42,35.33 165.37,35.33 59.94,0 115.33,-11.8 166.18,-35.33 50.83,-23.55 94.74,-55.14 131.66,-94.73 36.93,-39.61 65.83,-85.65 86.7,-138.08 20.88,-52.46 31.31,-108.12 31.31,-166.98 0,-57.8 -10.18,-112.94 -30.5,-165.38 -20.35,-52.45 -48.98,-98.49 -85.9,-138.08 -36.93,-39.61 -80.83,-70.93 -131.66,-93.92 -50.85,-23.01 -106.77,-34.53 -167.79,-34.53"
         style="fill:#2b3994;fill-opacity:1;fill-rule:nonzero;stroke:none"
         transform="matrix(0.13333333,0,0,-0.13333333,0,1713.1867)" />
      <path
         id="path12"
         d="m 10753.7,4486.83 h -109.2 v 467.23 c 0,99.55 -14.7,171.79 -44.1,216.75 -29.5,44.96 -74.7,67.44 -135.7,67.44 -32.1,0 -64.2,-5.89 -96.4,-17.66 -32.1,-11.8 -61.8,-28.38 -89.1,-49.78 -27.3,-21.42 -51.6,-46.83 -73,-76.27 -21.4,-29.45 -36.9,-61.28 -46.6,-95.52 v -512.19 h -109.2 v 836.51 h 99.6 v -189.46 c 34.2,61.02 83.2,110.23 146.9,147.72 63.7,37.46 133,56.2 207.9,56.2 46,0 85.1,-8.59 117.2,-25.7 32.1,-17.13 57.8,-41.22 77.1,-72.24 19.3,-31.07 33.2,-69.05 41.7,-114.01 8.6,-44.95 12.9,-94.72 12.9,-149.31 v -489.71"
         style="fill:#2b3994;fill-opacity:1;fill-rule:nonzero;stroke:none"
         transform="matrix(0.13333333,0,0,-0.13333333,0,1713.1867)" />
      <path
         id="path13"
         d="m 11656,4949.24 c -3.2,44.95 -13.6,85.9 -31.3,122.83 -17.6,36.93 -40.1,68.76 -67.4,95.53 -27.3,26.75 -58.9,47.62 -94.8,62.62 -35.8,14.98 -74.1,22.48 -114.8,22.48 -40.6,0 -79.2,-7.5 -115.6,-22.48 -36.4,-15 -68.2,-35.87 -95.5,-62.62 -27.3,-26.77 -49.2,-58.88 -65.8,-96.34 -16.6,-37.48 -26.5,-78.14 -29.7,-122.02 z m -308.3,-478.47 c -61,0 -116.9,11.52 -167.7,34.53 -50.9,22.99 -95,54.59 -132.5,94.72 -37.5,40.14 -66.6,86.43 -87.5,138.89 -20.9,52.43 -31.3,108.62 -31.3,168.58 0,58.86 10.4,114.25 31.3,166.19 20.9,51.9 49.8,97.39 86.7,136.47 36.9,39.06 81.1,70.1 132.5,93.12 51.3,23.01 107,34.53 166.9,34.53 61.1,0 117,-11.52 167.8,-34.53 50.9,-23.02 94.5,-54.33 130.9,-93.92 36.4,-39.62 64.7,-85.1 85.1,-136.48 20.3,-51.37 30.5,-105.97 30.5,-163.76 0,-8.59 0,-17.14 0,-25.7 0,-8.58 -0.6,-14.45 -1.6,-17.66 h -716.1 c 3.2,-44.96 13.6,-86.45 31.3,-124.44 17.7,-38.01 40.4,-70.92 68.2,-98.74 27.9,-27.84 59.7,-49.52 95.6,-65.03 35.8,-15.52 74.1,-23.28 114.8,-23.28 26.7,0 53.5,3.74 80.2,11.24 26.8,7.48 51.4,17.67 73.9,30.51 22.5,12.84 42.8,28.62 61,47.36 18.2,18.72 32.1,39.34 41.8,61.82 l 94.7,-25.68 c -12.9,-31.07 -31.1,-59.16 -54.6,-84.3 -23.6,-25.17 -50.9,-47.12 -81.9,-65.83 -31,-18.74 -65.3,-33.19 -102.7,-43.35 -37.5,-10.17 -76.6,-15.26 -117.3,-15.26"
         style="fill:#2b3994;fill-opacity:1;fill-rule:nonzero;stroke:none"
         transform="matrix(0.13333333,0,0,-0.13333333,0,1713.1867)" />
      <path
         id="path14"
         d="m 11933.8,5658.91 h 109.2 v -982.62 c 0,-31.06 8.5,-55.4 25.6,-73.05 17.2,-17.67 41.2,-26.5 72.3,-26.5 11.8,0 25.7,1.61 41.7,4.82 16.1,3.21 31.1,7.48 45,12.85 l 19.3,-88.31 c -20.4,-8.59 -45.3,-15.53 -74.7,-20.87 -29.5,-5.35 -54.9,-8.03 -76.3,-8.03 -50.3,0 -89.9,14.17 -118.8,42.54 -28.9,28.35 -43.3,68.24 -43.3,119.62 v 1019.55"
         style="fill:#2b3994;fill-opacity:1;fill-rule:nonzero;stroke:none"
         transform="matrix(0.13333333,0,0,-0.13333333,0,1713.1867)" />
      <path
         id="path15"
         d="m 13142.8,5227.01 c -73.9,-2.16 -138.1,-22.48 -192.7,-61.01 -54.6,-38.54 -93.1,-91.52 -115.6,-158.96 v -520.21 h -109.2 v 836.51 h 102.8 v -200.69 c 31,64.22 72.7,114.52 125.2,150.92 52.4,36.37 108.6,54.59 168.6,54.59 8.5,0 15.5,-0.55 20.9,-1.6 v -99.55"
         style="fill:#2b3994;fill-opacity:1;fill-rule:nonzero;stroke:none"
         transform="matrix(0.13333333,0,0,-0.13333333,0,1713.1867)" />
      <path
         id="path16"
         d="m 13916.7,4949.24 c -3.2,44.95 -13.7,85.9 -31.3,122.83 -17.7,36.93 -40.2,68.76 -67.5,95.53 -27.3,26.75 -58.8,47.62 -94.7,62.62 -35.9,14.98 -74.1,22.48 -114.8,22.48 -40.7,0 -79.2,-7.5 -115.6,-22.48 -36.4,-15 -68.2,-35.87 -95.5,-62.62 -27.3,-26.77 -49.3,-58.88 -65.9,-96.34 -16.6,-37.48 -26.4,-78.14 -29.7,-122.02 z m -308.3,-478.47 c -61,0 -117,11.52 -167.8,34.53 -50.8,22.99 -95,54.59 -132.4,94.72 -37.5,40.14 -66.7,86.43 -87.5,138.89 -20.9,52.43 -31.4,108.62 -31.4,168.58 0,58.86 10.5,114.25 31.4,166.19 20.8,51.9 49.7,97.39 86.7,136.47 36.9,39.06 81,70.1 132.4,93.12 51.4,23.01 107,34.53 167,34.53 61,0 116.9,-11.52 167.8,-34.53 50.8,-23.02 94.4,-54.33 130.8,-93.92 36.4,-39.62 64.8,-85.1 85.1,-136.48 20.4,-51.37 30.5,-105.97 30.5,-163.76 0,-8.59 0,-17.14 0,-25.7 0,-8.58 -0.5,-14.45 -1.6,-17.66 h -716.1 c 3.3,-44.96 13.7,-86.45 31.3,-124.44 17.7,-38.01 40.4,-70.92 68.3,-98.74 27.8,-27.84 59.6,-49.52 95.5,-65.03 35.9,-15.52 74.1,-23.28 114.8,-23.28 26.8,0 53.5,3.74 80.3,11.24 26.7,7.48 51.4,17.67 73.9,30.51 22.4,12.84 42.8,28.62 61,47.36 18.2,18.72 32.1,39.34 41.7,61.82 l 94.8,-25.68 c -12.9,-31.07 -31.1,-59.16 -54.6,-84.3 -23.6,-25.17 -50.9,-47.12 -81.9,-65.83 -31.1,-18.74 -65.3,-33.19 -102.8,-43.35 -37.5,-10.17 -76.5,-15.26 -117.2,-15.26"
         style="fill:#2b3994;fill-opacity:1;fill-rule:nonzero;stroke:none"
         transform="matrix(0.13333333,0,0,-0.13333333,0,1713.1867)" />
      <path
         id="path17"
         d="m 14892.9,4486.83 h -109.2 v 467.23 c 0,99.55 -14.7,171.79 -44.2,216.75 -29.4,44.96 -74.6,67.44 -135.6,67.44 -32.2,0 -64.3,-5.89 -96.4,-17.66 -32.1,-11.8 -61.8,-28.38 -89.1,-49.78 -27.3,-21.42 -51.6,-46.83 -73,-76.27 -21.5,-29.45 -37,-61.28 -46.6,-95.52 v -512.19 h -109.2 v 836.51 h 99.6 v -189.46 c 34.2,61.02 83.2,110.23 146.9,147.72 63.6,37.46 133,56.2 207.9,56.2 46,0 85.1,-8.59 117.2,-25.7 32.1,-17.13 57.8,-41.22 77.1,-72.24 19.2,-31.07 33.1,-69.05 41.7,-114.01 8.6,-44.95 12.9,-94.72 12.9,-149.31 v -489.71"
         style="fill:#2b3994;fill-opacity:1;fill-rule:nonzero;stroke:none"
         transform="matrix(0.13333333,0,0,-0.13333333,0,1713.1867)" />
      <path
         id="path18"
         d="m 15491.7,4567.11 c 32.1,0 63.7,5.87 94.8,17.66 31,11.77 59.1,27.55 84.3,47.36 25.1,19.8 46.3,42 63.4,66.64 17.1,24.61 28.3,49.77 33.7,75.46 v 258.5 c -11.8,29.96 -27.8,57.8 -48.2,83.49 -20.3,25.69 -43.3,47.62 -69,65.83 -25.7,18.19 -53.3,32.64 -82.7,43.35 -29.4,10.69 -59.2,16.06 -89.1,16.06 -47.1,0 -89.1,-9.91 -126,-29.71 -37,-19.81 -68.3,-45.75 -94,-77.87 -25.7,-32.11 -45.2,-68.51 -58.6,-109.18 -13.4,-40.69 -20,-81.88 -20,-123.62 0,-44.96 8,-87.79 24,-128.45 16.1,-40.69 38.3,-76.27 66.7,-106.78 28.3,-30.5 61.2,-54.59 98.7,-72.25 37.5,-17.66 78.1,-26.49 122,-26.49 z m -30.5,-91.52 c -57.8,0 -110.5,12.04 -158.1,36.12 -47.7,24.09 -88.9,55.93 -123.6,95.54 -34.8,39.59 -61.9,85.1 -81.1,136.47 -19.3,51.38 -28.9,104.37 -28.9,158.96 0,57.8 9.3,113.19 28.1,166.18 18.7,52.98 45.2,99.27 79.4,138.88 34.3,39.59 75.2,71.18 122.9,94.73 47.6,23.53 100.3,35.33 158.1,35.33 71.7,0 133.8,-17.94 186.3,-53.79 52.4,-35.88 97.4,-81.09 134.8,-135.68 v 175.01 h 98 v -839.72 c 0,-57.81 -11,-108.91 -32.9,-153.33 -22,-44.41 -51.4,-81.61 -88.3,-111.6 -37,-29.95 -80.3,-52.43 -130.1,-67.43 -49.8,-14.98 -102.5,-22.48 -158.1,-22.48 -96.4,0 -174,17.14 -232.9,51.38 -58.8,34.27 -106.5,80.28 -142.9,138.09 l 67.5,52.97 c 33.1,-53.5 77,-92.84 131.6,-118 54.6,-25.14 113.5,-37.74 176.7,-37.74 40.6,0 79.2,5.63 115.6,16.87 36.3,11.23 68.2,27.84 95.5,49.76 27.3,21.96 49,49.78 65,83.5 16.1,33.71 24.1,73.06 24.1,118.01 V 4649 c -32.1,-53.54 -76,-95.81 -131.7,-126.85 -55.6,-31.05 -114,-46.56 -175,-46.56"
         style="fill:#2b3994;fill-opacity:1;fill-rule:nonzero;stroke:none"
         transform="matrix(0.13333333,0,0,-0.13333333,0,1713.1867)" />
      <path
         id="path19"
         d="m 16474.4,4567.11 c 41.7,0 81,8.83 118,26.49 36.9,17.66 69.3,41.75 97.1,72.25 27.8,30.51 49.8,66.09 65.8,106.78 16.1,40.66 24.1,84.54 24.1,131.65 0,50.3 -9.4,96.87 -28.1,139.69 -18.7,42.8 -43.6,79.72 -74.6,110.79 L 16317,4615.28 c 47.1,-32.11 99.6,-48.17 157.4,-48.17 z m -303.5,333.97 c 0,-51.39 9.1,-98.22 27.3,-140.5 18.2,-42.3 42.8,-78.95 73.9,-109.98 l 359.6,541.08 c -48.2,33.17 -100.6,49.78 -157.3,49.78 -41.8,0 -80.9,-8.83 -117.3,-26.5 -36.3,-17.65 -68.5,-42.02 -96.3,-73.05 -27.8,-31.06 -49.8,-67.18 -65.8,-108.37 -16.1,-41.22 -24.1,-85.38 -24.1,-132.46 z m -24.1,-415.85 62.6,81.88 c -47.1,40.67 -83.7,89.91 -109.9,147.72 -26.3,57.8 -39.4,120.42 -39.4,187.85 0,58.86 10.5,114.52 31.3,166.98 20.9,52.43 49.8,98.47 86.7,138.08 37,39.59 80.6,71.18 130.9,94.73 50.3,23.53 105.4,35.33 165.4,35.33 40.6,0 79.2,-5.37 115.6,-16.06 36.3,-10.71 70.1,-26.24 101.1,-46.56 l 36.9,51.38 h 75.5 l -65.8,-86.7 c 48.1,-40.7 85.6,-90.2 112.4,-148.53 26.7,-58.35 40.1,-121.22 40.1,-188.65 0,-57.8 -10.2,-112.94 -30.5,-165.38 -20.3,-52.45 -49,-98.49 -85.9,-138.08 -36.9,-39.61 -80.8,-70.93 -131.7,-93.92 -50.8,-23.01 -106.7,-34.53 -167.7,-34.53 -40.7,0 -79.5,5.38 -116.4,16.06 -37,10.68 -71,25.69 -102,44.96 l -35.3,-46.56 h -73.9"
         style="fill:#2b3994;fill-opacity:1;fill-rule:nonzero;stroke:none"
         transform="matrix(0.13333333,0,0,-0.13333333,0,1713.1867)" />
      <path
         id="path20"
         d="m 17490.7,5227.01 c -73.9,-2.16 -138.1,-22.48 -192.7,-61.01 -54.6,-38.54 -93.1,-91.52 -115.6,-158.96 v -520.21 h -109.2 v 836.51 h 102.8 v -200.69 c 31,64.22 72.8,114.52 125.2,150.92 52.5,36.37 108.6,54.59 168.6,54.59 8.6,0 15.5,-0.55 20.9,-1.6 v -99.55"
         style="fill:#2b3994;fill-opacity:1;fill-rule:nonzero;stroke:none"
         transform="matrix(0.13333333,0,0,-0.13333333,0,1713.1867)" />
      <path
         id="path21"
         d="m 17636.8,4486.83 v 836.51 h 109.2 v -836.51 z m 0,1011.52 v 160.56 h 109.2 v -160.56 h -109.2"
         style="fill:#2b3994;fill-opacity:1;fill-rule:nonzero;stroke:none"
         transform="matrix(0.13333333,0,0,-0.13333333,0,1713.1867)" />
      <path
         id="path22"
         d="m 18690,4486.83 h -109.1 v 467.23 c 0,99.55 -14.8,171.79 -44.2,216.75 -29.5,44.96 -74.7,67.44 -135.7,67.44 -32.1,0 -64.2,-5.89 -96.3,-17.66 -32.1,-11.8 -61.8,-28.38 -89.1,-49.78 -27.3,-21.42 -51.7,-46.83 -73.1,-76.27 -21.4,-29.45 -36.9,-61.28 -46.5,-95.52 v -512.19 h -109.2 v 836.51 h 99.5 v -189.46 c 34.3,61.02 83.3,110.23 146.9,147.72 63.7,37.46 133,56.2 208,56.2 46,0 85.1,-8.59 117.2,-25.7 32.1,-17.13 57.8,-41.22 77,-72.24 19.3,-31.07 33.2,-69.05 41.8,-114.01 8.6,-44.95 12.8,-94.72 12.8,-149.31 v -489.71"
         style="fill:#2b3994;fill-opacity:1;fill-rule:nonzero;stroke:none"
         transform="matrix(0.13333333,0,0,-0.13333333,0,1713.1867)" />
      <path
         id="path23"
         d="m 19288.9,4567.11 c 32.1,0 63.7,5.87 94.7,17.66 31.1,11.77 59.2,27.55 84.3,47.36 25.2,19.8 46.3,42 63.4,66.64 17.2,24.61 28.4,49.77 33.8,75.46 v 258.5 c -11.8,29.96 -27.9,57.8 -48.2,83.49 -20.3,25.69 -43.3,47.62 -69,65.83 -25.7,18.19 -53.3,32.64 -82.7,43.35 -29.5,10.69 -59.2,16.06 -89.1,16.06 -47.2,0 -89.1,-9.91 -126.1,-29.71 -36.9,-19.81 -68.2,-45.75 -93.9,-77.87 -25.7,-32.11 -45.2,-68.51 -58.6,-109.18 -13.4,-40.69 -20.1,-81.88 -20.1,-123.62 0,-44.96 8,-87.79 24.1,-128.45 16.1,-40.69 38.3,-76.27 66.6,-106.78 28.4,-30.5 61.3,-54.59 98.8,-72.25 37.4,-17.66 78.1,-26.49 122,-26.49 z m -30.5,-91.52 c -57.8,0 -110.5,12.04 -158.1,36.12 -47.7,24.09 -88.9,55.93 -123.7,95.54 -34.8,39.59 -61.8,85.1 -81.1,136.47 -19.2,51.38 -28.9,104.37 -28.9,158.96 0,57.8 9.4,113.19 28.1,166.18 18.7,52.98 45.2,99.27 79.5,138.88 34.3,39.59 75.2,71.18 122.8,94.73 47.7,23.53 100.4,35.33 158.2,35.33 71.7,0 133.8,-17.94 186.2,-53.79 52.5,-35.88 97.4,-81.09 134.9,-135.68 v 175.01 h 97.9 v -839.72 c 0,-57.81 -10.9,-108.91 -32.9,-153.33 -21.9,-44.41 -51.3,-81.61 -88.3,-111.6 -36.9,-29.95 -80.3,-52.43 -130,-67.43 -49.8,-14.98 -102.5,-22.48 -158.2,-22.48 -96.3,0 -173.9,17.14 -232.8,51.38 -58.9,34.27 -106.5,80.28 -142.9,138.09 l 67.5,52.97 c 33.1,-53.5 77,-92.84 131.6,-118 54.6,-25.14 113.5,-37.74 176.6,-37.74 40.7,0 79.2,5.63 115.6,16.87 36.4,11.23 68.3,27.84 95.6,49.76 27.3,21.96 48.9,49.78 65,83.5 16,33.71 24.1,73.06 24.1,118.01 V 4649 c -32.1,-53.54 -76,-95.81 -131.7,-126.85 -55.7,-31.05 -114,-46.56 -175,-46.56"
         style="fill:#2b3994;fill-opacity:1;fill-rule:nonzero;stroke:none"
         transform="matrix(0.13333333,0,0,-0.13333333,0,1713.1867)" />
      <path
         id="path24"
         d="m 8563.58,7939.42 c 0,178.2 31.34,355.75 94,532.64 62.65,176.83 154.57,335.58 275.73,476.23 121.13,140.61 269.43,254.13 444.88,340.45 175.45,86.32 374.54,129.53 597.39,129.53 264.52,0 491.52,-59.94 680.92,-179.63 189.4,-119.77 330,-275.71 421.9,-467.89 l -296.6,-192.17 c -44.5,94.66 -98.1,174.02 -160.8,238.12 -62.7,64.03 -130.9,115.54 -204.7,154.56 -73.8,38.96 -149.7,66.85 -227.7,83.55 -78,16.7 -154.5,25.07 -229.72,25.07 -164.38,0 -309.86,-34.12 -436.55,-102.34 -126.75,-68.32 -233.3,-157.38 -319.59,-267.36 -86.36,-110.03 -151.11,-233.93 -194.25,-371.83 -43.21,-137.84 -64.75,-276.42 -64.75,-415.63 0,-155.98 25.72,-304.3 77.3,-444.91 51.48,-140.65 123.22,-265.28 215.13,-373.86 91.91,-108.64 200.53,-195 325.81,-259.03 125.35,-64.1 261.78,-96.1 409.42,-96.1 78,0 158,9.75 240.2,29.26 82.1,19.41 160.8,50.79 236,94 75.2,43.11 145.5,97.43 211,162.91 65.4,65.43 119,144.1 160.9,236.05 l 313.2,-171.31 c -47.4,-111.42 -113.5,-209.57 -198.4,-294.52 -85,-84.99 -181.1,-156.63 -288.2,-215.14 -107.3,-58.47 -220.8,-103.05 -340.5,-133.64 -119.8,-30.63 -236.7,-45.99 -350.9,-45.99 -203.3,0 -389.97,44.55 -559.81,133.71 -169.9,89.07 -316.81,205.33 -440.72,348.82 -123.95,143.39 -220.01,306.29 -288.22,488.78 -68.29,182.35 -102.37,368.26 -102.37,557.67"
         style="fill:#07a95c;fill-opacity:1;fill-rule:nonzero;stroke:none"
         transform="matrix(0.13333333,0,0,-0.13333333,0,1713.1867)" />
      <path
         id="path25"
         d="M 13990.2,9401.57 V 6435.54 h -376.1 V 7784.85 H 11980.7 V 6435.54 h -375.9 v 2966.03 h 375.9 V 8119.02 h 1633.4 v 1282.55 h 376.1"
         style="fill:#07a95c;fill-opacity:1;fill-rule:nonzero;stroke:none"
         transform="matrix(0.13333333,0,0,-0.13333333,0,1713.1867)" />
      <path
         id="path26"
         d="m 14700.3,6435.54 v 5095.36 h 375.9 V 6435.54 h -375.9"
         style="fill:#07a95c;fill-opacity:1;fill-rule:nonzero;stroke:none"
         transform="matrix(0.13333333,0,0,-0.13333333,0,1713.1867)" />
      <path
         id="path27"
         d="m 17800,6769.75 v -334.21 h -2013.6 v 2966.03 h 1976 v -334.24 h -1600 v -960.82 h 1391 v -313.29 h -1391 V 6769.75 H 17800"
         style="fill:#07a95c;fill-opacity:1;fill-rule:nonzero;stroke:none"
         transform="matrix(0.13333333,0,0,-0.13333333,0,1713.1867)" />
      <path
         id="path28"
         d="m 18689.7,7834.99 h 898.2 c 78,0 148.3,16.71 210.9,50.15 62.7,33.4 116.4,78.63 160.9,135.74 44.6,57.06 79.3,123.25 104.4,198.46 25.1,75.18 37.6,153.13 37.6,233.93 0,83.58 -14.6,162.18 -43.8,236.02 -29.3,73.77 -68.2,139.2 -117,196.31 -48.7,57.06 -105.9,101.69 -171.3,133.71 -65.4,31.97 -134.4,48.02 -206.7,48.02 h -873.2 z m -375.9,-1399.45 v 2966.03 h 1269.9 c 130.9,0 251.3,-27.16 361.4,-81.49 110,-54.32 204.7,-126.75 284.1,-217.22 79.3,-90.51 141.3,-192.16 185.8,-304.95 44.6,-112.8 66.9,-227.66 66.9,-344.64 0,-103.09 -14.6,-202.61 -43.8,-298.68 -29.4,-96.1 -71.1,-183.17 -125.4,-261.12 -54.3,-77.99 -119.7,-144.87 -196.3,-200.53 -76.7,-55.73 -162.3,-96.06 -256.9,-121.13 0,0 -287.1,-62.1 -384.4,-71.02 -195.5,-17.91 -785.4,0 -785.4,0 V 6435.54 h -375.9"
         style="fill:#07a95c;fill-opacity:1;fill-rule:nonzero;stroke:none"
         transform="matrix(0.13333333,0,0,-0.13333333,0,1713.1867)" />
      <path
         id="path29"
         d="m 3442.39,6399.77 c -110.63,0 -200.29,89.68 -200.29,200.28 0,110.64 89.66,200.28 200.29,200.28 110.6,0 200.28,-89.64 200.28,-200.28 0,-110.6 -89.68,-200.28 -200.28,-200.28 z m 9.5,600.85 c -221.21,0 -400.57,-179.33 -400.57,-400.57 0,-221.27 179.36,-400.6 400.57,-400.6 221.24,0 400.6,179.33 400.6,400.6 0,221.24 -179.36,400.57 -400.6,400.57"
         style="fill:#07a95c;fill-opacity:1;fill-rule:nonzero;stroke:none"
         transform="matrix(0.13333333,0,0,-0.13333333,0,1713.1867)" />
      <path
         id="path30"
         d="m 20828,5584.47 c -6.1,10.52 -637.9,1094.26 -2556,3361.76 C 15681.6,11997.3 9529.64,12190.6 7400.69,11757 5994.1,11470.5 5130.3,10851.5 5146.42,10141.5 c 14.68,-645.65 641.77,-954 1719.95,-1268.45 821.58,-239.62 1624.74,-548.39 1637.39,-1442.33 3.92,-278.79 -104.94,-669.41 -645.81,-947.13 -308.94,-158.69 -727.51,-258.8 -1178.67,-281.88 -803.33,-41.25 -1933.05,261.95 -1980.76,274.88 l 122.44,452.01 c 10.98,-2.95 1105.92,-296.38 1834.35,-259.24 516.18,26.48 1387.8,215.21 1380.18,754.78 -6.65,471.35 -322.61,714.19 -1300.23,999.33 -1028,299.81 -2033.61,678.63 -2057,1707.33 -11.11,489.2 243.19,944.1 735.32,1315.7 455.27,343.8 1110.07,609.8 1893.69,769.4 1122.31,228.5 3232.03,288.6 5415.33,-92.2 1856.1,-323.8 4387.5,-1085.3 5906.7,-2874.71 1952.1,-2307.77 2579,-3386.46 2604.7,-3431.25 l -406,-233.27"
         style="fill:#07a95c;fill-opacity:1;fill-rule:nonzero;stroke:none"
         transform="matrix(0.13333333,0,0,-0.13333333,0,1713.1867)" />
      <path
         id="path31"
         d="m 4828.06,6292.46 h -0.27 c 0.09,-0.51 0.16,-0.69 0.27,0"
         style="fill:#07a95c;fill-opacity:1;fill-rule:nonzero;stroke:none"
         transform="matrix(0.13333333,0,0,-0.13333333,0,1713.1867)" />
      <path
         id="path32"
         d="m 4836.08,6759.77 c 0,127.57 -41.7,248.12 -115.03,356.05 8.58,9.88 15.96,21.23 21.27,34.26 23.36,57.31 1.13,120.55 -49.69,141.27 -35.74,14.57 -75.83,3.8 -104.74,-23.6 -216.37,195.66 -554.22,321.83 -934.48,321.83 -137.08,0 -268.6,-16.57 -391.03,-46.68 v -500.57 c 41.87,14.47 86.66,22.66 133.47,22.66 223.3,0 656.93,-57.2 495.98,-772.53 h 935.96 c -1.82,13.41 8.29,394.5 8.29,467.31"
         style="fill:#2b3994;fill-opacity:1;fill-rule:nonzero;stroke:none"
         transform="matrix(0.13333333,0,0,-0.13333333,0,1713.1867)" />
      <path
         id="path33"
         d="m 21396.2,5677.65 c -48.7,-21.85 -96.6,-20.58 -107.2,2.84 -10.5,23.43 20.5,60.13 69.1,81.97 48.6,21.88 96.6,20.61 107.1,-2.78 10.5,-23.45 -20.3,-60.19 -69,-82.03 z m -365.9,50.38 c -329.5,-181.32 -536.7,-438.26 -466.3,-576.75 l 1198.8,668.9 c -86.4,125.38 -408.7,86.01 -732.5,-92.15"
         style="fill:#07a95c;fill-opacity:1;fill-rule:nonzero;stroke:none"
         transform="matrix(0.13333333,0,0,-0.13333333,0,1713.1867)" />
      <path
         id="path34"
         d="m 21401.2,5084.06 c 0,-60.25 -48.9,-109.16 -109.2,-109.16 -60.3,0 -109.2,48.91 -109.2,109.16 0,60.33 48.9,109.24 109.2,109.24 60.3,0 109.2,-48.91 109.2,-109.24"
         style="fill:#07a95c;fill-opacity:1;fill-rule:nonzero;stroke:none"
         transform="matrix(0.13333333,0,0,-0.13333333,0,1713.1867)" />
      <path
         id="path35"
         d="m 21948.9,4981.73 c 0,-56.49 -45.7,-102.2 -102.2,-102.2 -56.4,0 -102.2,45.71 -102.2,102.2 0,56.38 45.8,102.16 102.2,102.16 56.5,0 102.2,-45.78 102.2,-102.16"
         style="fill:#07a95c;fill-opacity:1;fill-rule:nonzero;stroke:none"
         transform="matrix(0.13333333,0,0,-0.13333333,0,1713.1867)" />
      <path
         id="path36"
         d="m 21799.3,5365.94 c 0,-44.14 -35.8,-79.98 -79.9,-79.98 -44.2,0 -80,35.84 -80,79.98 0,44.13 35.8,79.91 80,79.91 44.1,0 79.9,-35.78 79.9,-79.91"
         style="fill:#07a95c;fill-opacity:1;fill-rule:nonzero;stroke:none"
         transform="matrix(0.13333333,0,0,-0.13333333,0,1713.1867)" />
      <path
         id="path37"
         d="m 22785.7,4956.62 c 0,-71.61 -58,-129.64 -129.7,-129.64 -71.6,0 -129.6,58.03 -129.6,129.64 0,71.61 58,129.7 129.6,129.7 71.7,0 129.7,-58.09 129.7,-129.7"
         style="fill:#07a95c;fill-opacity:1;fill-rule:nonzero;stroke:none"
         transform="matrix(0.13333333,0,0,-0.13333333,0,1713.1867)" />
      <path
         id="path38"
         d="m 21800.1,5784.06 -1203.4,-673.22 43.6,-77.85 1203.3,673.19 -43.5,77.88"
         style="fill:#07a95c;fill-opacity:1;fill-rule:nonzero;stroke:none"
         transform="matrix(0.13333333,0,0,-0.13333333,0,1713.1867)" />
      <path
         id="path39"
         d="m 16446.1,12330.4 c 0,-286.4 -241,-518.5 -538.4,-518.5 -297.5,0 -538.5,232.1 -538.5,518.5 0,286.4 241,518.5 538.5,518.5 297.4,0 538.4,-232.1 538.4,-518.5"
         style="fill:#07a95c;fill-opacity:1;fill-rule:nonzero;stroke:none"
         transform="matrix(0.13333333,0,0,-0.13333333,0,1713.1867)" />
      <path
         id="path40"
         d="m 2998.59,2448.5 c 70.6,-138.8 184.35,-252 323.11,-323.1 l 107.87,107.8 c 13.24,13.3 32.85,17.7 50.01,11.8 54.92,-18.1 114.25,-27.9 175.04,-27.9 26.97,0 49.04,-22.1 49.04,-49.1 v -171.1 c 0,-27 -22.07,-49 -49.04,-49 -460.4,0 -833.53,373.1 -833.53,833.5 0,27 22.07,49 49.04,49 h 171.6 c 26.97,0 49.04,-22 49.04,-49 0,-61.3 9.8,-120.1 27.94,-175 5.4,-17.2 1.47,-36.3 -12.25,-50 l -107.87,-107.9"
         style="fill:#ffffff;fill-opacity:1;fill-rule:nonzero;stroke:none"
         transform="matrix(0.13333333,0,0,-0.13333333,0,1713.1867)" />
      <path
         id="path41"
         d="m 4749.9,2854.8 -8.96,-104.9 h -390.82 c -4.27,-124.1 -7.47,-224.5 -9.6,-301.3 48.19,30.7 100.43,46.1 156.72,46.1 47.33,0 89.64,-7.6 126.96,-22.7 37.31,-15.2 67.81,-36 91.48,-62.4 23.66,-26.4 41.67,-57.2 54.05,-92.4 12.36,-35.2 18.55,-73.3 18.55,-114.2 0,-96.8 -31.03,-174.3 -93.07,-232.5 -62.05,-58.2 -146.38,-87.3 -252.98,-87.3 -107.04,0 -192.76,29.2 -257.14,87.6 l 41.58,90.2 c 63.1,-49.5 136.24,-74.2 219.39,-74.2 69.94,0 125.16,19.8 165.67,59.5 40.51,39.6 60.77,91.4 60.77,155.4 0,57.2 -17.06,103.5 -51.17,139.1 -34.12,35.6 -82.74,53.5 -145.84,53.5 -63.12,0 -113.86,-21.2 -152.24,-63.4 l -88.91,12.2 24.95,511.7 h 490.61"
         style="fill:#ffffff;fill-opacity:1;fill-rule:nonzero;stroke:none"
         transform="matrix(0.13333333,0,0,-0.13333333,0,1713.1867)" />
      <path
         id="path42"
         d="m 5370.36,2724.6 c -31.14,34.3 -68.45,51.5 -111.94,51.5 -43.5,0 -80.82,-17.2 -111.94,-51.5 -31.13,-34.3 -54.48,-80.8 -70.04,-139.4 -15.58,-58.7 -23.35,-126.3 -23.35,-203.1 0,-78 7.77,-147 23.35,-206.9 15.56,-59.9 38.91,-107.4 70.04,-142.4 31.12,-34.9 68.44,-52.4 111.94,-52.4 43.49,0 80.8,17.5 111.94,52.4 31.12,35 54.46,82.5 70.04,142.4 15.56,59.9 23.35,128.9 23.35,206.9 0,76.8 -7.79,144.4 -23.35,203.1 -15.58,58.6 -38.92,105.1 -70.04,139.4 z m 36.78,-804 c -42.44,-25 -92.01,-37.4 -148.72,-37.4 -56.72,0 -106.4,12.4 -149.04,37.4 -42.65,24.9 -76.87,60 -102.66,105.2 -25.81,45.2 -45,97.2 -57.57,156.1 -12.59,58.8 -18.87,124.3 -18.87,196.4 0,59.2 4.15,114 12.47,164.3 8.31,50.4 21.21,96 38.7,136.9 17.48,41 39.12,75.7 64.93,104.3 25.79,28.6 56.6,50.6 92.42,66.2 35.82,15.56 75.69,23.35 119.62,23.35 54.58,0 102.87,-11.95 144.88,-35.85 41.99,-23.9 76.11,-57.9 102.34,-102 26.23,-44.1 45.95,-96.2 59.17,-156.1 13.21,-59.9 19.83,-126.9 19.83,-201.1 0,-72.1 -6.19,-137.6 -18.55,-196.4 -12.37,-58.9 -31.34,-110.9 -56.93,-156.1 -25.59,-45.2 -59.6,-80.3 -102.02,-105.2"
         style="fill:#ffffff;fill-opacity:1;fill-rule:nonzero;stroke:none"
         transform="matrix(0.13333333,0,0,-0.13333333,0,1713.1867)" />
      <path
         id="path43"
         d="m 6296.57,2854.8 -8.96,-104.9 h -390.82 c -4.27,-124.1 -7.47,-224.5 -9.6,-301.3 48.19,30.7 100.43,46.1 156.72,46.1 47.33,0 89.64,-7.6 126.96,-22.7 37.31,-15.2 67.81,-36 91.48,-62.4 23.66,-26.4 41.67,-57.2 54.05,-92.4 12.36,-35.2 18.55,-73.3 18.55,-114.2 0,-96.8 -31.03,-174.3 -93.07,-232.5 -62.05,-58.2 -146.38,-87.3 -252.98,-87.3 -107.04,0 -192.76,29.2 -257.14,87.6 l 41.57,90.2 c 63.11,-49.5 136.25,-74.2 219.4,-74.2 69.94,0 125.16,19.8 165.67,59.5 40.51,39.6 60.77,91.4 60.77,155.4 0,57.2 -17.06,103.5 -51.17,139.1 -34.12,35.6 -82.74,53.5 -145.84,53.5 -63.12,0 -113.86,-21.2 -152.24,-63.4 l -88.91,12.2 24.95,511.7 h 490.61"
         style="fill:#ffffff;fill-opacity:1;fill-rule:nonzero;stroke:none"
         transform="matrix(0.13333333,0,0,-0.13333333,0,1713.1867)" />
      <path
         id="path44"
         d="m 6917.03,2724.6 c -31.14,34.3 -68.45,51.5 -111.94,51.5 -43.5,0 -80.82,-17.2 -111.94,-51.5 -31.13,-34.3 -54.48,-80.8 -70.04,-139.4 -15.58,-58.7 -23.35,-126.3 -23.35,-203.1 0,-78 7.77,-147 23.35,-206.9 15.56,-59.9 38.91,-107.4 70.04,-142.4 31.12,-34.9 68.44,-52.4 111.94,-52.4 43.49,0 80.8,17.5 111.94,52.4 31.12,35 54.46,82.5 70.04,142.4 15.56,59.9 23.35,128.9 23.35,206.9 0,76.8 -7.79,144.4 -23.35,203.1 -15.58,58.6 -38.92,105.1 -70.04,139.4 z m 36.78,-804 c -42.44,-25 -92.01,-37.4 -148.72,-37.4 -56.72,0 -106.4,12.4 -149.04,37.4 -42.65,24.9 -76.87,60 -102.66,105.2 -25.81,45.2 -45,97.2 -57.57,156.1 -12.59,58.8 -18.87,124.3 -18.87,196.4 0,59.2 4.15,114 12.47,164.3 8.31,50.4 21.21,96 38.7,136.9 17.48,41 39.12,75.7 64.93,104.3 25.79,28.6 56.6,50.6 92.42,66.2 35.82,15.56 75.69,23.35 119.62,23.35 54.58,0 102.87,-11.95 144.88,-35.85 41.99,-23.9 76.11,-57.9 102.34,-102 26.23,-44.1 45.95,-96.2 59.17,-156.1 13.21,-59.9 19.83,-126.9 19.83,-201.1 0,-72.1 -6.19,-137.6 -18.55,-196.4 -12.37,-58.9 -31.34,-110.9 -56.93,-156.1 -25.59,-45.2 -59.6,-80.3 -102.02,-105.2"
         style="fill:#ffffff;fill-opacity:1;fill-rule:nonzero;stroke:none"
         transform="matrix(0.13333333,0,0,-0.13333333,0,1713.1867)" />
      <path
         id="path45"
         d="m 7694.84,1897.9 328.78,857.8 h -431.76 l 7.03,99.1 h 554.58 v -87 l -342.22,-869.9 h -116.41"
         style="fill:#ffffff;fill-opacity:1;fill-rule:nonzero;stroke:none"
         transform="matrix(0.13333333,0,0,-0.13333333,0,1713.1867)" />
      <path
         id="path46"
         d="m 8387.58,2187.6 c 0,-37.9 7.13,-72.2 21.42,-102.9 14.29,-30.7 36.67,-55.8 67.17,-75.2 30.48,-19.4 66.84,-29.1 109.06,-29.1 63.1,0 112.68,19.4 148.72,58.2 36.03,38.8 54.05,87 54.05,144.6 0,60.5 -18.02,110.3 -54.05,149.3 -36.04,39 -85.62,58.5 -148.72,58.5 -66.95,0 -116.64,-18.9 -149.04,-56.9 -32.41,-37.9 -48.61,-86.8 -48.61,-146.5 z m 220.68,299.4 c 53.73,0 103.4,-12.7 149.03,-38.1 45.63,-25.3 82.3,-61.4 110.02,-108.1 27.72,-46.7 41.58,-98.6 41.58,-155.7 0,-87 -29.32,-159.1 -87.95,-216.2 -58.64,-57.2 -135.93,-85.7 -231.87,-85.7 -49.9,0 -95.42,8.4 -136.57,25.2 -41.16,16.9 -75.06,39.7 -101.7,68.5 -26.66,28.8 -47.33,62.2 -62.05,100.4 -14.71,38.2 -22.07,79 -22.07,122.5 0,69.5 12.69,131.7 38.07,186.5 25.36,54.7 71.31,124.1 137.84,208.2 16.2,20.4 41.79,52 76.76,94.6 34.96,42.7 66.09,80.2 93.38,112.6 l 40.3,48.63 h 147.76 L 8464.34,2448.6 c 48.18,25.6 96.15,38.4 143.92,38.4"
         style="fill:#ffffff;fill-opacity:1;fill-rule:nonzero;stroke:none"
         transform="matrix(0.13333333,0,0,-0.13333333,0,1713.1867)" />
      <path
         id="path47"
         d="m 9154.52,2187.6 c 0,-37.9 7.13,-72.2 21.42,-102.9 14.28,-30.7 36.67,-55.8 67.17,-75.2 30.48,-19.4 66.84,-29.1 109.06,-29.1 63.1,0 112.67,19.4 148.71,58.2 36.03,38.8 54.06,87 54.06,144.6 0,60.5 -18.03,110.3 -54.06,149.3 -36.04,39 -85.61,58.5 -148.71,58.5 -66.96,0 -116.64,-18.9 -149.04,-56.9 -32.41,-37.9 -48.61,-86.8 -48.61,-146.5 z M 9375.2,2487 c 53.73,0 103.4,-12.7 149.03,-38.1 45.63,-25.3 82.3,-61.4 110.02,-108.1 27.72,-46.7 41.58,-98.6 41.58,-155.7 0,-87 -29.33,-159.1 -87.95,-216.2 -58.64,-57.2 -135.93,-85.7 -231.87,-85.7 -49.9,0 -95.42,8.4 -136.57,25.2 -41.16,16.9 -75.06,39.7 -101.7,68.5 -26.66,28.8 -47.33,62.2 -62.05,100.4 -14.71,38.2 -22.07,79 -22.07,122.5 0,69.5 12.68,131.7 38.06,186.5 25.37,54.7 71.32,124.1 137.85,208.2 16.2,20.4 41.78,52 76.75,94.6 34.97,42.7 66.1,80.2 93.39,112.6 l 40.3,48.63 h 147.76 L 9231.27,2448.6 c 48.19,25.6 96.16,38.4 143.93,38.4"
         style="fill:#ffffff;fill-opacity:1;fill-rule:nonzero;stroke:none"
         transform="matrix(0.13333333,0,0,-0.13333333,0,1713.1867)" />
      <path
         id="path48"
         d="m 10376.9,2854.8 -9,-104.9 h -390.8 c -4.26,-124.1 -7.46,-224.5 -9.59,-301.3 48.19,30.7 100.39,46.1 156.69,46.1 47.4,0 89.7,-7.6 127,-22.7 37.3,-15.2 67.8,-36 91.5,-62.4 23.6,-26.4 41.6,-57.2 54,-92.4 12.4,-35.2 18.6,-73.3 18.6,-114.2 0,-96.8 -31.1,-174.3 -93.1,-232.5 -62.1,-58.2 -146.4,-87.3 -253,-87.3 -107.03,0 -192.74,29.2 -257.12,87.6 l 41.57,90.2 c 63.11,-49.5 136.25,-74.2 219.45,-74.2 69.9,0 125.1,19.8 165.6,59.5 40.5,39.6 60.8,91.4 60.8,155.4 0,57.2 -17.1,103.5 -51.2,139.1 -34.1,35.6 -82.7,53.5 -145.8,53.5 -63.1,0 -113.88,-21.2 -152.26,-63.4 l -88.91,12.2 24.94,511.7 h 490.63"
         style="fill:#ffffff;fill-opacity:1;fill-rule:nonzero;stroke:none"
         transform="matrix(0.13333333,0,0,-0.13333333,0,1713.1867)" />
      <path
         id="path49"
         d="m 13742.2,2054.3 h -210 v 472.3 h 210 z m -262.5,262.4 h -577.3 v 209.9 h 577.3 z m 0,-262.4 h -577.3 v 209.9 h 577.3 z m 262.5,734.7 h -839.8 c -57.7,0 -104.4,-47.2 -104.4,-104.9 l -0.5,-629.8 c 0,-57.8 47.2,-105 104.9,-105 h 839.8 c 57.7,0 104.9,47.2 104.9,105 v 629.8 c 0,57.7 -47.2,104.9 -104.9,104.9"
         style="fill:#ffffff;fill-opacity:1;fill-rule:nonzero;stroke:none"
         transform="matrix(0.13333333,0,0,-0.13333333,0,1713.1867)" />
      <path
         id="path50"
         d="m 14915.2,1929.3 c -98.5,314.7 -159.5,510.6 -183,587.8 -13.2,-46.9 -28.3,-97.6 -45.4,-152.2 -17.1,-54.6 -32,-101.5 -44.8,-140.7 -12.8,-39.3 -29.4,-90 -49.9,-152.3 -20.4,-62.2 -36,-109.8 -46.7,-142.6 h -115.1 l -200.2,701.7 h 110.7 l 150.3,-574.4 c 20.9,68.2 82.3,259.7 184.2,574.4 h 120.9 c 101.5,-321.5 161.2,-512.4 179.1,-572.5 l 148.4,572.5 h 109.4 l -202.2,-701.7 h -115.7"
         style="fill:#ffffff;fill-opacity:1;fill-rule:nonzero;stroke:none"
         transform="matrix(0.13333333,0,0,-0.13333333,0,1713.1867)" />
      <path
         id="path51"
         d="m 15942.4,1929.3 c -98.5,314.7 -159.5,510.6 -182.9,587.8 -13.2,-46.9 -28.4,-97.6 -45.4,-152.2 -17.1,-54.6 -32,-101.5 -44.8,-140.7 -12.8,-39.3 -29.4,-90 -49.9,-152.3 -20.4,-62.2 -36,-109.8 -46.7,-142.6 h -115.1 l -200.2,701.7 h 110.6 l 150.3,-574.4 c 20.9,68.2 82.3,259.7 184.3,574.4 h 120.9 c 101.5,-321.5 161.2,-512.4 179.1,-572.5 L 16151,2631 h 109.3 l -202.1,-701.7 h -115.8"
         style="fill:#ffffff;fill-opacity:1;fill-rule:nonzero;stroke:none"
         transform="matrix(0.13333333,0,0,-0.13333333,0,1713.1867)" />
      <path
         id="path52"
         d="m 16969.7,1929.3 c -98.5,314.7 -159.5,510.6 -182.9,587.8 -13.2,-46.9 -28.4,-97.6 -45.4,-152.2 -17.1,-54.6 -32,-101.5 -44.8,-140.7 -12.8,-39.3 -29.4,-90 -49.9,-152.3 -20.5,-62.2 -36,-109.8 -46.7,-142.6 h -115.1 l -200.3,701.7 h 110.7 l 150.3,-574.4 c 20.9,68.2 82.3,259.7 184.2,574.4 h 120.9 c 101.5,-321.5 161.2,-512.4 179.1,-572.5 l 148.4,572.5 h 109.4 l -202.1,-701.7 h -115.8"
         style="fill:#ffffff;fill-opacity:1;fill-rule:nonzero;stroke:none"
         transform="matrix(0.13333333,0,0,-0.13333333,0,1713.1867)" />
      <path
         id="path53"
         d="m 17415.6,1921.6 c -26.5,0 -47.3,8.4 -62.4,25.3 -15.2,16.8 -22.7,36.6 -22.7,59.2 0,23 7.4,42.8 22.4,59.5 14.9,16.6 35.8,24.9 62.7,24.9 26.8,0 47.7,-8.3 62.6,-24.9 15,-16.7 22.4,-36.5 22.4,-59.5 0,-23.1 -7.4,-42.9 -22.4,-59.5 -14.9,-16.7 -35.8,-25 -62.6,-25"
         style="fill:#ffffff;fill-opacity:1;fill-rule:nonzero;stroke:none"
         transform="matrix(0.13333333,0,0,-0.13333333,0,1713.1867)" />
      <path
         id="path54"
         d="m 17865.2,1914.6 c -47.7,0 -91.8,5.1 -132.1,15.3 -40.3,10.3 -73,23.5 -98.1,39.7 l 13.4,90.2 c 71.2,-38 141.1,-56.9 209.8,-56.9 104,0 157.6,36.6 160.5,110 0,31.1 -11.1,55.6 -33.2,73.5 -22.2,17.9 -65.7,38 -130.5,60.2 l -53.1,18.5 c -61.4,20.5 -105.2,45.9 -131.5,76.1 -26.2,30.3 -39.5,68 -39.9,113.3 0,55 22,100.6 66.2,136.8 44.1,36.3 104.6,54.4 181.3,54.4 79.3,0 151.6,-15.3 216.9,-46 l -31.4,-81.9 c -66.1,27.3 -127.9,40.9 -185.5,40.9 -44.8,0 -79.8,-8.8 -105.2,-26.5 -25.4,-17.7 -38.1,-42.6 -38.1,-74.6 0,-27.2 9.2,-48.1 27.5,-62.6 18.4,-14.5 55,-31.2 110.1,-49.9 14,-5.1 31.7,-11.1 53.1,-17.9 70.7,-23.1 120.9,-50.3 150.3,-81.6 29.4,-31.3 44.1,-73.7 44.1,-127 -0.9,-64.8 -24.1,-115 -69.7,-150.6 -45.7,-35.6 -107.3,-53.4 -184.9,-53.4"
         style="fill:#ffffff;fill-opacity:1;fill-rule:nonzero;stroke:none"
         transform="matrix(0.13333333,0,0,-0.13333333,0,1713.1867)" />
      <path
         id="path55"
         d="m 18562.4,1914.6 c -103.2,0 -183.9,33.5 -242.1,100.4 -58.2,67 -87.3,154.6 -87.3,262.9 0.4,109.2 30.2,197.8 89.3,265.8 59,68 139.9,102 242.7,102 36.2,0 71.3,-4.5 105.2,-13.4 33.9,-9 60.7,-20.7 80.3,-35.2 l -29.4,-83.2 c -49.9,26.9 -102.6,40.3 -158,40.3 -67.8,0 -121.4,-24.7 -160.9,-74.2 -39.4,-49.4 -59.2,-117 -59.2,-202.7 0,-83.6 19.6,-149.8 58.6,-198.6 39,-48.9 93,-73.3 162.1,-73.3 55,0 111.3,14.9 168.9,44.8 l 13.4,-85.1 c -46.5,-33.7 -107.7,-50.5 -183.6,-50.5"
         style="fill:#ffffff;fill-opacity:1;fill-rule:nonzero;stroke:none"
         transform="matrix(0.13333333,0,0,-0.13333333,0,1713.1867)" />
      <path
         id="path56"
         d="m 19357.5,1929.3 v 424.1 c 0,70.4 -11.2,121.5 -33.6,153.5 -22.3,32 -61.5,48 -117.3,48 -53.8,0 -99.1,-13.5 -136,-40.3 -36.8,-26.9 -60.8,-61.6 -71.9,-104.3 -3.9,-32 -5.8,-67.6 -5.8,-106.8 v -374.2 h -106.8 v 974.18 l 106.8,6.41 V 2624.6 c 0,-24.3 -0.8,-54.4 -2.5,-90.2 60.1,74.2 139.8,111.3 239.2,111.3 156.5,0 234.8,-91.9 234.8,-275.7 v -440.7 h -106.9"
         style="fill:#ffffff;fill-opacity:1;fill-rule:nonzero;stroke:none"
         transform="matrix(0.13333333,0,0,-0.13333333,0,1713.1867)" />
      <path
         id="path57"
         d="m 19722.1,2631 v -701.7 h -107.4 V 2631 Z m 0,255.21 V 2759.6 h -107.4 v 126.61 h 107.4"
         style="fill:#ffffff;fill-opacity:1;fill-rule:nonzero;stroke:none"
         transform="matrix(0.13333333,0,0,-0.13333333,0,1713.1867)" />
      <path
         id="path58"
         d="m 20327.5,2501.5 c -31.3,37.3 -74.3,55.9 -128.8,55.9 -54.6,0 -99.2,-19.3 -133.7,-57.9 -34.6,-38.5 -54.8,-91.3 -60.8,-158.3 h 370.4 c 0,69.5 -15.7,122.9 -47.1,160.3 z m -107.7,-586.9 c -102,0 -182.2,32.4 -240.9,97.2 -58.6,64.8 -87.9,153.5 -87.9,266.1 0,108.7 28.3,196.9 85.1,264.5 56.7,67.6 131.3,102 223.8,103.3 87,0 156,-29.7 207,-89.2 50.9,-59.5 76.4,-138.9 76.4,-238.3 0,-5.1 -0.1,-14.5 -0.3,-28.1 -0.2,-13.7 -0.3,-23.5 -0.3,-29.5 H 20001 c 1.3,-79.7 21.9,-141.9 61.7,-186.4 39.9,-44.6 93.5,-66.9 160.9,-66.9 74.2,0 148.6,19.6 223.2,58.9 l 16.7,-86.4 c -71.2,-43.5 -152.5,-65.2 -243.7,-65.2"
         style="fill:#ffffff;fill-opacity:1;fill-rule:nonzero;stroke:none"
         transform="matrix(0.13333333,0,0,-0.13333333,0,1713.1867)" />
      <path
         id="path59"
         d="m 20946.4,2637.4 c 19.2,0 36.7,-1.3 52.5,-3.8 l -3.9,-98.6 c -19.6,3.5 -36.7,5.2 -51.2,5.2 -59.7,0 -108.2,-20.8 -145.5,-62.4 -37.3,-41.6 -55.9,-93.1 -55.9,-154.5 v -394 h -106.9 c -0.4,430.7 -0.6,664.6 -0.6,701.7 h 88.9 l 10.2,-126 c 24.4,39.6 55.3,71.6 92.8,95.9 37.5,24.3 77.4,36.5 119.6,36.5"
         style="fill:#ffffff;fill-opacity:1;fill-rule:nonzero;stroke:none"
         transform="matrix(0.13333333,0,0,-0.13333333,0,1713.1867)" />
      <path
         id="path60"
         d="m 21082,1921.6 c -26.4,0 -47.2,8.4 -62.4,25.3 -15.1,16.8 -22.7,36.6 -22.7,59.2 0,23 7.5,42.8 22.4,59.5 14.9,16.6 35.8,24.9 62.7,24.9 26.9,0 47.8,-8.3 62.7,-24.9 14.9,-16.7 22.4,-36.5 22.4,-59.5 0,-23.1 -7.5,-42.9 -22.4,-59.5 -14.9,-16.7 -35.8,-25 -62.7,-25"
         style="fill:#ffffff;fill-opacity:1;fill-rule:nonzero;stroke:none"
         transform="matrix(0.13333333,0,0,-0.13333333,0,1713.1867)" />
      <path
         id="path61"
         d="m 21596.3,2006.7 c 70.4,0 122.7,22.6 157,67.8 34.3,45.2 51.5,109.8 51.5,193.8 0,94.7 -16.5,166 -49.6,214 -33,47.9 -86.4,71.9 -160.2,71.9 -32.8,0 -61.8,-7 -87,-21.1 -25.1,-14 -45.4,-33.7 -60.7,-58.8 -15.4,-25.2 -27,-54.1 -34.9,-86.7 -7.9,-32.6 -11.8,-68.3 -11.8,-107.1 0,-54.6 6.7,-102 20.1,-142 13.4,-40.1 35.1,-72.1 64.9,-96 29.9,-23.9 66.8,-35.8 110.7,-35.8 z m 210.4,24.3 c -23,-35.4 -53.7,-63.5 -92.1,-84.4 -38.3,-20.9 -81.2,-31.4 -128.5,-31.4 -92.6,0 -165.1,33 -217.5,98.9 -52.5,65.8 -78.7,155.5 -78.7,268.9 0,108.3 26.6,195.9 80,262.6 53.3,66.7 124.7,100.1 214.2,100.1 46.5,0 90.3,-10.1 131.5,-30.4 41.1,-20.2 71.9,-47.4 92.4,-81.5 l -1.9,60.7 v 308.98 l 105.5,6.41 V 1929.3 h -90.8 l -14.1,101.7"
         style="fill:#ffffff;fill-opacity:1;fill-rule:nonzero;stroke:none"
         transform="matrix(0.13333333,0,0,-0.13333333,0,1713.1867)" />
      <path
         id="path62"
         d="m 22098.4,1929.3 v 974.18 l 106.2,6.41 V 2310.5 c 2.5,2.6 6.4,6.8 11.5,12.8 5.1,6 9.2,10.5 12.2,13.5 37.1,40.5 133,138.5 287.8,294.2 h 135.6 l -291.7,-295.5 312.2,-406.2 h -133.1 l -256.5,345.4 -78,-67.2 v -278.2 h -106.2"
         style="fill:#ffffff;fill-opacity:1;fill-rule:nonzero;stroke:none"
         transform="matrix(0.13333333,0,0,-0.13333333,0,1713.1867)" />
    </g>
  </g>
</svg>
